HIERARCHY
ROOT Root
{
  OFFSET 0.0 0.0 0.0
  CHANNELS 6 Xposition Yposition Zposition Zrotation Yrotation Xrotation
  JOINT Hips
  {
    OFFSET 0.0 100.0 0.0
    CHANNELS 6 Xposition Yposition Zposition Zrotation Yrotation Xrotation
    JOINT Spine1
    {
      OFFSET 5.003913 -0.037094 -0.013727
      CHANNELS 3 Zrotation Yrotation Xrotation
      JOINT Spine2
      {
        OFFSET 7.125363 -1e-06 0.0
        CHANNELS 3 Zrotation Yrotation Xrotation
        JOINT Chest
        {
          OFFSET 7.594027 1e-06 0.0
          CHANNELS 3 Zrotation Yrotation Xrotation
          JOINT Neck1
          {
            OFFSET 26.313086 -0.460272 -0.181672
            CHANNELS 3 Zrotation Yrotation Xrotation
            JOINT Neck2
            {
              OFFSET 8.045911 0.0 0.0
              CHANNELS 3 Zrotation Yrotation Xrotation
              JOINT Head
              {
                OFFSET 6.432774 0.0 0.0
                CHANNELS 3 Zrotation Yrotation Xrotation
                JOINT HeadEnd
                {
                  OFFSET 16.169773 0.06451 0.00362
                  CHANNELS 3 Zrotation Yrotation Xrotation
                }
                JOINT Jaw
                {
                  OFFSET 0.108741 3.12938 0.002639
                  CHANNELS 3 Zrotation Yrotation Xrotation
                }
                JOINT LeftEye
                {
                  OFFSET 4.45173 8.166359 3.206392
                  CHANNELS 3 Zrotation Yrotation Xrotation
                }
                JOINT RightEye
                {
                  OFFSET 4.436895 8.135758 -3.222429
                  CHANNELS 3 Zrotation Yrotation Xrotation
                }
              }
            }
          }
          JOINT LeftShoulder
          {
            OFFSET 23.218927 5.195579 1.621656
            CHANNELS 3 Zrotation Yrotation Xrotation
            JOINT LeftArm
            {
              OFFSET 15.902118 2e-06 -2e-06
              CHANNELS 3 Zrotation Yrotation Xrotation
              JOINT LeftForeArm
              {
                OFFSET 28.739307 0.0 -1e-06
                CHANNELS 3 Zrotation Yrotation Xrotation
                JOINT LeftHand
                {
                  OFFSET 27.093981 -4e-06 0.0
                  CHANNELS 3 Zrotation Yrotation Xrotation
                  JOINT LeftHandThumb1
                  {
                    OFFSET 2.276781 3.380274 0.83384
                    CHANNELS 3 Zrotation Yrotation Xrotation
                    JOINT LeftHandThumb2
                    {
                      OFFSET 4.705309 -1e-06 -1e-06
                      CHANNELS 3 Zrotation Yrotation Xrotation
                      JOINT LeftHandThumb3
                      {
                        OFFSET 2.798515 0.0 3e-06
                        CHANNELS 3 Zrotation Yrotation Xrotation
                        JOINT LeftHandThumbEnd
                        {
                          OFFSET 3.180793 4e-06 -4e-06
                          CHANNELS 3 Zrotation Yrotation Xrotation
                        }
                      }
                    }
                  }
                  JOINT LeftHandIndex1
                  {
                    OFFSET 3.247786 2.352677 0.137192
                    CHANNELS 3 Zrotation Yrotation Xrotation
                    JOINT LeftHandIndex2
                    {
                      OFFSET 6.367095 1e-06 0.0
                      CHANNELS 3 Zrotation Yrotation Xrotation
                      JOINT LeftHandIndex3
                      {
                        OFFSET 3.662364 0.0 0.0
                        CHANNELS 3 Zrotation Yrotation Xrotation
                        JOINT LeftHandIndex4
                        {
                          OFFSET 2.329242 4e-06 -4e-06
                          CHANNELS 3 Zrotation Yrotation Xrotation
                          JOINT LeftHandIndexEnd
                          {
                            OFFSET 2.767823 1e-06 0.0
                            CHANNELS 3 Zrotation Yrotation Xrotation
                          }
                        }
                      }
                    }
                  }
                  JOINT LeftHandMiddle1
                  {
                    OFFSET 3.163612 0.945023 -0.406112
                    CHANNELS 3 Zrotation Yrotation Xrotation
                    JOINT LeftHandMiddle2
                    {
                      OFFSET 6.276789 3e-06 0.0
                      CHANNELS 3 Zrotation Yrotation Xrotation
                      JOINT LeftHandMiddle3
                      {
                        OFFSET 4.35652 -1e-06 4e-06
                        CHANNELS 3 Zrotation Yrotation Xrotation
                        JOINT LeftHandMiddle4
                        {
                          OFFSET 2.996877 0.0 8e-06
                          CHANNELS 3 Zrotation Yrotation Xrotation
                          JOINT LeftHandMiddleEnd
                          {
                            OFFSET 2.323256 3e-06 -4e-06
                            CHANNELS 3 Zrotation Yrotation Xrotation
                          }
                        }
                      }
                    }
                  }
                  JOINT LeftHandRing1
                  {
                    OFFSET 2.882606 -0.309162 0.107445
                    CHANNELS 3 Zrotation Yrotation Xrotation
                    JOINT LeftHandRing2
                    {
                      OFFSET 6.033198 0.0 4e-06
                      CHANNELS 3 Zrotation Yrotation Xrotation
                      JOINT LeftHandRing3
                      {
                        OFFSET 4.350578 3e-06 0.0
                        CHANNELS 3 Zrotation Yrotation Xrotation
                        JOINT LeftHandRing4
                        {
                          OFFSET 2.651321 2e-06 -7e-06
                          CHANNELS 3 Zrotation Yrotation Xrotation
                          JOINT LeftHandRingEnd
                          {
                            OFFSET 1.937663 1e-06 -4e-06
                            CHANNELS 3 Zrotation Yrotation Xrotation
                          }
                        }
                      }
                    }
                  }
                  JOINT LeftHandPinky1
                  {
                    OFFSET 2.865315 -1.525436 0.575687
                    CHANNELS 3 Zrotation Yrotation Xrotation
                    JOINT LeftHandPinky2
                    {
                      OFFSET 5.54936 1e-06 -8e-06
                      CHANNELS 3 Zrotation Yrotation Xrotation
                      JOINT LeftHandPinky3
                      {
                        OFFSET 3.070974 0.0 -4e-06
                        CHANNELS 3 Zrotation Yrotation Xrotation
                        JOINT LeftHandPinky4
                        {
                          OFFSET 1.549672 1e-06 0.0
                          CHANNELS 3 Zrotation Yrotation Xrotation
                          JOINT LeftHandPinkyEnd
                          {
                            OFFSET 1.952123 0.0 0.0
                            CHANNELS 3 Zrotation Yrotation Xrotation
                          }
                        }
                      }
                    }
                  }
                }
              }
            }
          }
          JOINT RightShoulder
          {
            OFFSET 23.161716 5.296122 -1.380114
            CHANNELS 3 Zrotation Yrotation Xrotation
            JOINT RightArm
            {
              OFFSET -16.027195 -2e-06 1.1e-05
              CHANNELS 3 Zrotation Yrotation Xrotation
              JOINT RightForeArm
              {
                OFFSET -28.736639 4e-06 2e-06
                CHANNELS 3 Zrotation Yrotation Xrotation
                JOINT RightHand
                {
                  OFFSET -27.133619 6e-06 0.0
                  CHANNELS 3 Zrotation Yrotation Xrotation
                  JOINT RightHandThumb1
                  {
                    OFFSET -2.274328 -3.351035 -0.83067
                    CHANNELS 3 Zrotation Yrotation Xrotation
                    JOINT RightHandThumb2
                    {
                      OFFSET -4.703594 -3e-06 2e-06
                      CHANNELS 3 Zrotation Yrotation Xrotation
                      JOINT RightHandThumb3
                      {
                        OFFSET -2.794935 -4e-06 -3e-06
                        CHANNELS 3 Zrotation Yrotation Xrotation
                        JOINT RightHandThumbEnd
                        {
                          OFFSET -3.183852 4e-06 1e-06
                          CHANNELS 3 Zrotation Yrotation Xrotation
                        }
                      }
                    }
                  }
                  JOINT RightHandIndex1
                  {
                    OFFSET -3.253496 -2.33755 -0.127667
                    CHANNELS 3 Zrotation Yrotation Xrotation
                    JOINT RightHandIndex2
                    {
                      OFFSET -6.344434 0.0 0.0
                      CHANNELS 3 Zrotation Yrotation Xrotation
                      JOINT RightHandIndex3
                      {
                        OFFSET -3.654871 0.0 -8e-06
                        CHANNELS 3 Zrotation Yrotation Xrotation
                        JOINT RightHandIndex4
                        {
                          OFFSET -2.327586 -1e-06 0.0
                          CHANNELS 3 Zrotation Yrotation Xrotation
                          JOINT RightHandIndexEnd
                          {
                            OFFSET -2.770001 3e-06 8e-06
                            CHANNELS 3 Zrotation Yrotation Xrotation
                          }
                        }
                      }
                    }
                  }
                  JOINT RightHandMiddle1
                  {
                    OFFSET -3.168223 -0.944764 0.411762
                    CHANNELS 3 Zrotation Yrotation Xrotation
                    JOINT RightHandMiddle2
                    {
                      OFFSET -6.266691 -1e-06 -4e-06
                      CHANNELS 3 Zrotation Yrotation Xrotation
                      JOINT RightHandMiddle3
                      {
                        OFFSET -4.348901 0.0 0.0
                        CHANNELS 3 Zrotation Yrotation Xrotation
                        JOINT RightHandMiddle4
                        {
                          OFFSET -3.00024 2e-06 -4e-06
                          CHANNELS 3 Zrotation Yrotation Xrotation
                          JOINT RightHandMiddleEnd
                          {
                            OFFSET -2.321477 -4e-06 -4e-06
                            CHANNELS 3 Zrotation Yrotation Xrotation
                          }
                        }
                      }
                    }
                  }
                  JOINT RightHandRing1
                  {
                    OFFSET -2.885654 0.293261 -0.119232
                    CHANNELS 3 Zrotation Yrotation Xrotation
                    JOINT RightHandRing2
                    {
                      OFFSET -6.032835 -1e-06 -4e-06
                      CHANNELS 3 Zrotation Yrotation Xrotation
                      JOINT RightHandRing3
                      {
                        OFFSET -4.33881 0.0 -4e-06
                        CHANNELS 3 Zrotation Yrotation Xrotation
                        JOINT RightHandRing4
                        {
                          OFFSET -2.654903 -4e-06 -4e-06
                          CHANNELS 3 Zrotation Yrotation Xrotation
                          JOINT RightHandRingEnd
                          {
                            OFFSET -1.935122 0.0 4e-06
                            CHANNELS 3 Zrotation Yrotation Xrotation
                          }
                        }
                      }
                    }
                  }
                  JOINT RightHandPinky1
                  {
                    OFFSET -2.866241 1.503904 -0.60527
                    CHANNELS 3 Zrotation Yrotation Xrotation
                    JOINT RightHandPinky2
                    {
                      OFFSET -5.553177 -2e-06 0.0
                      CHANNELS 3 Zrotation Yrotation Xrotation
                      JOINT RightHandPinky3
                      {
                        OFFSET -3.062664 -1e-06 -4e-06
                        CHANNELS 3 Zrotation Yrotation Xrotation
                        JOINT RightHandPinky4
                        {
                          OFFSET -1.546529 2e-06 4e-06
                          CHANNELS 3 Zrotation Yrotation Xrotation
                          JOINT RightHandPinkyEnd
                          {
                            OFFSET -1.952341 0.0 -4e-06
                            CHANNELS 3 Zrotation Yrotation Xrotation
                          }
                        }
                      }
                    }
                  }
                }
              }
            }
          }
        }
      }
    }
    JOINT LeftLeg
    {
      OFFSET -8.443107 2.567604 10.043214
      CHANNELS 3 Zrotation Yrotation Xrotation
      JOINT LeftShin
      {
        OFFSET 43.229198 1e-06 -1e-06
        CHANNELS 3 Zrotation Yrotation Xrotation
        JOINT LeftFoot
        {
          OFFSET 42.298611 1e-06 1e-06
          CHANNELS 3 Zrotation Yrotation Xrotation
          JOINT LeftToeBase
          {
            OFFSET 14.165858 1e-06 0.0
            CHANNELS 3 Zrotation Yrotation Xrotation
            JOINT LeftToeEnd
            {
              OFFSET 6.7141 -0.234461 0.0
              CHANNELS 3 Zrotation Yrotation Xrotation
            }
          }
        }
      }
    }
    JOINT RightLeg
    {
      OFFSET -8.303923 2.592729 -10.047278
      CHANNELS 3 Zrotation Yrotation Xrotation
      JOINT RightShin
      {
        OFFSET -43.369682 0.0 1e-06
        CHANNELS 3 Zrotation Yrotation Xrotation
        JOINT RightFoot
        {
          OFFSET -42.260784 4e-06 2e-06
          CHANNELS 3 Zrotation Yrotation Xrotation
          JOINT RightToeBase
          {
            OFFSET -14.222245 -2e-06 -1e-06
            CHANNELS 3 Zrotation Yrotation Xrotation
            JOINT RightToeEnd
            {
              OFFSET -6.660062 0.232574 -2e-06
              CHANNELS 3 Zrotation Yrotation Xrotation
            }
          }
        }
      }
    }
  }
}
MOTION
Frames: 4
Frame Time: 0.03333333333333333
0.0 0.0 0.0 0.0 -0.0 0.0 1.666206 93.956192 -7.006114 93.442993 7.771215 89.717682 6.238468 0.300157 0.544198 -9.292034 0.17102 3.308157 26.817013 -2.21431 0.781068 32.615932 -3.450583 2.967256 -2.861292 -1.131395 -3.805696 -40.457096 -4.761923 -0.316834 6e-06 -0.0 -0.0 0.042573 0.045356 -0.051515 0.209681 -0.018574 -0.007102 0.152544 0.096834 -0.101071 -116.071609 -73.71701 140.12735 44.00539 -61.16375 -8.409256 7.740256 -0.893084 0.030647 -5.799762 -2.787344 6.138799 17.636848 -26.323034 52.411572 -19.466867 -14.395745 29.410641 5e-06 -8.774953 -1e-05 16.598104 -18.724529 6.800488 -0.609784 -1.795669 -3.889353 -4.807155 -11.046943 -2.937865 -1e-05 -20.976349 2.6e-05 -5.020092 -25.034058 -4.031931 5e-06 -2e-06 3e-06 -10.634644 -5.687025 -3.565604 10.5734 -17.923166 -3.113919 -5e-06 -13.821425 1.3e-05 -0.50182 -31.182158 -4.027069 -11.751904 -60.238075 8.164726 -13.982857 -7.150265 -2.875052 13.772892 -8.401587 -3.218261 0.347711 -34.212147 0.771701 -0.963058 -17.73373 2.62108 1e-06 -1e-06 -0.0 -17.346617 -20.095413 -4.201783 21.75782 -1.63839 3.866481 -0.0 -6.338922 6e-06 -1.697635 -22.592196 -6.194105 -1e-06 -4e-06 -2e-06 157.31694 -86.476852 43.171616 65.857658 -40.870781 -10.958932 29.96163 1.409903 0.509871 0.419752 25.520014 -15.722139 22.182285 -20.376055 49.93375 -16.702023 -16.74366 28.476854 0.0 -12.690747 -3e-06 15.71365 -17.566044 2.788947 -0.105921 -1.513876 -4.275916 -5.039094 -5.612941 -2.953591 4e-06 -11.020677 -1.5e-05 -6.11137 -15.895619 -3.840562 2e-06 1e-06 -0.0 -10.283455 -5.680351 -4.341872 11.028399 -11.302525 -2.372668 -1.38428 -14.238791 -6.32023 -0.625412 -26.924709 -3.827725 -4.625788 -49.901772 -2.986128 -13.708637 -7.363553 -3.720971 18.141323 -14.052889 -3.242723 1.3e-05 -18.787531 -3e-05 -0.429711 -8.456188 2.555535 3e-06 -1e-06 -1e-06 -15.923675 -20.09469 -5.473632 30.419491 -7.190892 1.735935 -1e-06 -8.163035 -1.1e-05 -1.861885 -22.861889 -6.168094 -1e-06 -5e-06 -4e-06 157.410309 0.344272 -13.16389 29.142195 -0.053234 -0.336444 -67.604134 2.854591 -4.177082 -5.805856 1.562967 2.037916 -1.000005 -0.0 0.0 17.029926 -7.691562 -8.244805 55.476879 -0.714396 0.314874 -41.560551 2.317607 -2.580838 -9.052081 0.748485 1.307175 -1.000005 0.0 -0.0 
0.0 0.0 0.0 0.0 -0.0 0.0 2.649398 95.131989 -1.662421 95.554039 8.393023 89.4841 6.627238 -0.804742 0.46226 -9.235888 -0.13922 2.984236 27.012701 -2.703365 0.121876 33.06448 -3.376754 3.048501 -2.784617 -0.911757 -3.593455 -41.218853 -4.762199 0.54967 6e-06 0.0 -0.0 0.044088 0.034589 -0.039154 0.140338 -0.000532 -0.010521 0.105004 0.055972 -0.069399 -116.365486 -74.218483 139.868988 48.319725 -59.148266 -12.200156 10.639159 -1.109334 0.021899 -4.375796 -2.17045 1.331653 17.636763 -26.322828 52.411339 -19.466763 -14.395691 29.410524 1.1e-05 -8.774911 -7e-06 16.669792 -18.958107 6.468746 -0.609783 -1.795661 -3.889338 -4.807141 -11.046882 -2.937858 -1.8e-05 -20.976198 5e-06 -5.020058 -25.033857 -4.031943 6e-06 0.0 -1e-06 -10.634606 -5.687005 -3.565588 10.57334 -17.923054 -3.113911 -1e-05 -13.821334 1e-06 -0.501807 -31.181921 -4.027083 -11.760342 -60.455994 7.632386 -13.982808 -7.150243 -2.875039 13.772832 -8.401529 -3.218256 0.347705 -34.211899 0.771667 -0.96305 -17.733599 2.621049 -1e-06 -0.0 1e-06 -17.346563 -20.095329 -4.20177 21.757738 -1.638366 3.866464 -4e-06 -6.338878 2e-06 -1.69763 -22.59202 -6.194098 -2e-06 -2e-06 -2e-06 143.097015 -87.144737 57.987167 65.250885 -42.233582 -10.02491 26.953733 0.68964 0.527019 -0.250061 24.62978 -17.382084 22.182217 -20.375978 49.933582 -16.701939 -16.743692 28.476751 3.3e-05 -12.690759 2e-06 15.999401 -17.713989 2.721416 -0.105918 -1.513867 -4.275902 -5.039102 -5.612938 -2.95357 -3e-05 -11.020663 -1e-06 -6.111444 -15.895617 -3.840523 -1e-06 -1e-06 -2e-06 -10.283455 -5.680353 -4.341846 11.028376 -11.302479 -2.372661 -1.384329 -14.238761 -6.320196 -0.625512 -26.924608 -3.827705 -4.31007 -50.058582 -3.100356 -13.708641 -7.363561 -3.720936 18.141294 -14.052824 -3.242711 -4.8e-05 -18.787508 -1.7e-05 -0.429736 -8.456177 2.555524 0.0 -0.0 2e-06 -15.923709 -20.094679 -5.473574 30.4195 -7.190805 1.735943 -2e-05 -8.163018 -1.5e-05 -1.861978 -22.861853 -6.168093 -4e-06 -1e-06 -0.0 161.853302 3.154811 -14.155031 29.128817 -0.026751 -0.396319 -70.629753 2.20476 -3.951588 -5.025228 1.624375 2.075098 -1.0 -0.0 0.0 9.545218 -11.583614 -8.784244 67.132217 -0.50576 0.170177 -48.629654 1.813601 -0.611871 -6.750639 0.697925 1.363937 -1.000005 -0.0 0.0 
0.0 0.0 0.0 0.0 -0.0 0.0 3.511009 96.750633 4.46021 95.656189 8.726344 89.387062 6.735285 -0.909313 0.208133 -9.217959 -0.17377 2.360205 27.09392 -2.328053 -0.388621 33.542416 -3.521076 3.060948 -2.721354 -0.904427 -3.076958 -40.418564 -4.823207 1.203714 6e-06 0.0 -0.0 0.032236 0.027717 -0.005871 0.125484 -0.003037 0.025942 0.096189 0.046559 -0.035537 -116.952728 -74.699402 140.013626 52.842873 -56.898121 -16.973848 13.16661 -0.876437 0.009622 -3.220576 1.099599 -2.929646 17.636858 -26.323046 52.411564 -19.466902 -14.395782 29.410671 9e-06 -8.774977 -1e-05 16.751812 -18.86805 6.162823 -0.609782 -1.79567 -3.889355 -4.807166 -11.046968 -2.937865 -2.4e-05 -20.976416 2.8e-05 -5.020136 -25.034164 -4.031939 6e-06 -2e-06 -0.0 -10.634653 -5.687033 -3.565601 10.573413 -17.92321 -3.113922 -1.4e-05 -13.82147 1.2e-05 -0.501843 -31.182314 -4.027081 -11.593311 -60.414978 7.246814 -13.982874 -7.150278 -2.875043 13.772923 -8.401602 -3.218271 0.347693 -34.212288 0.771706 -0.963068 -17.733818 2.621084 -0.0 -2e-06 1e-06 -17.346647 -20.095446 -4.201767 21.75787 -1.638387 3.866481 -3e-06 -6.338943 3e-06 -1.697654 -22.592319 -6.194127 -0.0 -3e-06 -2e-06 126.439301 -87.577469 75.019875 63.831841 -44.60363 -7.294378 24.403891 0.265847 0.352938 -0.552147 22.368792 -18.987354 22.182302 -20.376106 49.9338 -16.702095 -16.743782 28.476942 -8e-06 -12.690822 1.9e-05 16.105768 -17.655794 2.59443 -0.105912 -1.513871 -4.275923 -5.039106 -5.61295 -2.95359 8e-06 -11.020711 -1e-05 -6.111408 -15.895673 -3.840556 -0.0 0.0 -1e-06 -10.283479 -5.680353 -4.341869 11.028454 -11.302555 -2.372687 -1.384279 -14.238827 -6.320239 -0.625409 -26.924799 -3.827719 -3.819398 -50.115406 -3.380664 -13.708669 -7.363554 -3.72096 18.141417 -14.052921 -3.242753 1.3e-05 -18.787588 -1.9e-05 -0.429718 -8.456221 2.555553 4e-06 -3e-06 -1e-06 -15.923717 -20.094709 -5.47362 30.419651 -7.190913 1.735913 5e-06 -8.163057 -1.1e-05 -1.861923 -22.861963 -6.168094 0.0 -3e-06 0.0 167.840164 4.221633 -14.228321 26.500208 0.068188 -0.300934 -73.308006 2.414485 -4.275797 -5.026747 1.661928 2.088055 -1.000002 1e-06 0.0 2.022993 -12.205525 -8.069518 72.596886 -0.301106 0.166661 -57.374527 0.569785 0.34917 -6.590729 0.649881 1.426023 -1.000002 -0.0 -0.0 
0.0 0.0 0.0 0.0 -0.0 0.0 4.188357 98.472847 10.576706 94.353981 8.744745 89.55117 6.77088 -0.44915 -0.101199 -9.248937 -0.07136 1.446707 26.761223 -1.247077 -0.890281 34.108856 -3.513433 3.016066 -2.668979 -0.923667 -2.33301 -39.054173 -4.934228 1.700876 6e-06 0.0 0.0 0.018497 0.0249 -0.005574 0.125843 -0.007142 0.03481 0.096957 0.048609 -0.041588 -115.641457 -75.540649 137.950607 57.230053 -55.081551 -21.425001 15.927656 -0.733115 -0.041501 -2.209333 5.497097 -5.560702 17.636873 -26.323065 52.411758 -19.466982 -14.395829 29.410818 7e-06 -8.775008 -4e-06 16.599382 -18.821878 5.919692 -0.609784 -1.795676 -3.889366 -4.807178 -11.046984 -2.937885 -7e-06 -20.976435 -0.0 -5.020111 -25.034191 -4.031987 4e-06 -2e-06 1e-06 -10.634684 -5.687047 -3.565614 10.57345 -17.923225 -3.113953 -4e-06 -13.821477 -0.0 -0.50179 -31.182331 -4.027135 -11.407865 -60.029125 6.937656 -13.982912 -7.150293 -2.875055 13.772959 -8.401608 -3.218294 0.347726 -34.212307 0.771669 -0.963055 -17.733814 2.621083 1e-06 -3e-06 2e-06 -17.346693 -20.095484 -4.201795 21.757929 -1.63839 3.866487 -2e-06 -6.338944 -1e-06 -1.697637 -22.59231 -6.194169 -0.0 -2e-06 -2e-06 95.669357 -87.42086 105.934631 61.235172 -47.155735 -1.877959 22.265224 -0.100239 0.256654 0.191823 18.765427 -18.708439 22.182348 -20.376106 49.933769 -16.702061 -16.743784 28.476898 2.6e-05 -12.690845 5e-06 16.190956 -17.612328 2.431571 -0.105919 -1.513877 -4.275919 -5.039128 -5.612973 -2.953581 -2e-05 -11.020746 3e-06 -6.111472 -15.895742 -3.840539 0.0 -0.0 0.0 -10.283507 -5.680381 -4.341859 11.02845 -11.302565 -2.372672 -1.384328 -14.238879 -6.320228 -0.625502 -26.924894 -3.827713 -3.510725 -50.245445 -3.638078 -13.708709 -7.363596 -3.720942 18.141417 -14.052927 -3.242732 -3.1e-05 -18.787651 -2.1e-05 -0.429732 -8.456251 2.555549 0.0 -3e-06 -1e-06 -15.9238 -20.094788 -5.473586 30.419682 -7.19087 1.735953 -1.2e-05 -8.163081 -1.4e-05 -1.861978 -22.862053 -6.168132 -0.0 -1e-06 -0.0 174.636307 4.045445 -13.422239 21.378292 0.085314 -0.096365 -74.628647 2.732251 -4.621074 -5.284016 1.629977 2.070489 -1.000003 1e-06 -0.0 -5.220735 -10.515467 -7.749544 72.246429 -0.034345 0.178215 -64.597427 -2.819939 1.401325 -6.912219 0.614824 1.558836 -1.00001 0.0 -1e-06 
